<?xml version="1.0" ?><!DOCTYPE svg  PUBLIC '-//W3C//DTD SVG 1.1//EN'  'http://www.w3.org/Graphics/SVG/1.1/DTD/svg11.dtd'><svg enable-background="new 0 0 48 48" height="48px" version="1.1" viewBox="0 0 48 48" width="48px" xml:space="preserve" xmlns="http://www.w3.org/2000/svg" xmlns:xlink="http://www.w3.org/1999/xlink"><g id="Expanded"><g><g><path d="M24,48C10.767,48,0,37.233,0,24S10.767,0,24,0s24,10.767,24,24S37.233,48,24,48z M24,2C11.869,2,2,11.869,2,24     s9.869,22,22,22s22-9.869,22-22S36.131,2,24,2z"/></g><g><path d="M24,28c-2.206,0-4-1.794-4-4s1.794-4,4-4s4,1.794,4,4S26.206,28,24,28z M24,22c-1.103,0-2,0.897-2,2s0.897,2,2,2     s2-0.897,2-2S25.103,22,24,22z"/></g><g><path d="M26.122,22.879c-0.256,0-0.512-0.098-0.707-0.293c-0.391-0.391-0.391-1.023,0-1.414l9.899-9.899     c0.391-0.391,1.023-0.391,1.414,0s0.391,1.023,0,1.414l-9.899,9.899C26.633,22.781,26.377,22.879,26.122,22.879z"/></g><g><path d="M9,25H5c-0.552,0-1-0.447-1-1s0.448-1,1-1h4c0.552,0,1,0.447,1,1S9.552,25,9,25z"/></g><g><path d="M6.447,32.271c-0.393,0-0.765-0.232-0.924-0.617c-0.211-0.511,0.031-1.096,0.542-1.307l3.696-1.53     c0.509-0.213,1.095,0.03,1.306,0.541c0.211,0.511-0.031,1.096-0.542,1.307l-3.696,1.53C6.704,32.246,6.574,32.271,6.447,32.271z"/></g><g><path d="M41.552,32.271c-0.127,0-0.257-0.024-0.382-0.076l-3.695-1.531c-0.51-0.212-0.752-0.797-0.541-1.307     c0.211-0.511,0.797-0.754,1.307-0.541l3.695,1.531c0.51,0.212,0.752,0.797,0.541,1.307     C42.316,32.039,41.944,32.271,41.552,32.271z"/></g><g><path d="M42.999,25.001L42.999,25.001l-4-0.001c-0.552,0-1-0.448-1-1c0-0.553,0.448-1,1-1l0,0l4,0.001c0.553,0,1,0.448,1,1     C43.999,24.554,43.551,25.001,42.999,25.001z"/></g><g><path d="M37.858,19.26c-0.393,0-0.765-0.232-0.924-0.617c-0.211-0.511,0.031-1.096,0.542-1.307l3.695-1.529     c0.509-0.211,1.095,0.031,1.306,0.541c0.211,0.511-0.031,1.096-0.542,1.307l-3.695,1.529     C38.115,19.235,37.986,19.26,37.858,19.26z"/></g><g><path d="M29.74,11.142c-0.127,0-0.257-0.024-0.382-0.076c-0.51-0.212-0.752-0.797-0.541-1.307l1.531-3.694     c0.211-0.51,0.796-0.752,1.307-0.541c0.51,0.212,0.752,0.797,0.541,1.307l-1.531,3.694C30.504,10.909,30.132,11.142,29.74,11.142     z"/></g><g><path d="M24,10L24,10c-0.553,0-1-0.448-1-1l0.001-3.999c0-0.553,0.448-1,1-1l0,0c0.553,0,1,0.448,1,1L25,9     C25,9.553,24.552,10,24,10z"/></g><g><path d="M18.26,11.142c-0.393,0-0.765-0.232-0.924-0.617l-1.529-3.695c-0.211-0.511,0.031-1.096,0.542-1.307     c0.51-0.212,1.096,0.031,1.306,0.541l1.529,3.695c0.211,0.511-0.031,1.096-0.542,1.307C18.517,11.117,18.388,11.142,18.26,11.142     z"/></g><g><path d="M13.394,14.394c-0.256,0-0.512-0.098-0.708-0.293l-2.827-2.829c-0.39-0.391-0.39-1.024,0-1.414     c0.391-0.391,1.024-0.391,1.415,0l2.827,2.829c0.39,0.391,0.39,1.024,0,1.414C13.905,14.296,13.649,14.394,13.394,14.394z"/></g><g><path d="M10.142,19.26c-0.127,0-0.257-0.024-0.383-0.076l-3.695-1.532c-0.51-0.212-0.752-0.797-0.541-1.307     s0.795-0.753,1.307-0.541l3.695,1.532c0.51,0.212,0.752,0.797,0.541,1.307C10.906,19.027,10.534,19.26,10.142,19.26z"/></g><g><path d="M33,40H15c-0.552,0-1-0.447-1-1v-6c0-0.553,0.448-1,1-1h18c0.552,0,1,0.447,1,1v6C34,39.553,33.552,40,33,40z M16,38h16     v-4H16V38z"/></g></g></g></svg>